<svg xmlns="http://www.w3.org/2000/svg" xmlns:xlink="http://www.w3.org/1999/xlink" contentStyleType="text/css" height="505px" preserveAspectRatio="none" style="width:861px;height:505px;background:#FFFFFF;" version="1.1" viewBox="0 0 861 505" width="861px" zoomAndPan="magnify"><defs/><g><!--class Pizza--><g id="elem_Pizza"><rect codeLine="1" fill="#F1F1F1" height="113.1875" id="Pizza" rx="2.5" ry="2.5" style="stroke:#181818;stroke-width:0.5;" width="177.1699" x="178.5" y="188"/><ellipse cx="245.0308" cy="204" fill="#ADD1B2" rx="11" ry="11" style="stroke:#181818;stroke-width:1;"/><path d="M247.9995,209.6406 Q247.4214,209.9375 246.7808,210.0781 Q246.1401,210.2344 245.437,210.2344 Q242.937,210.2344 241.6089,208.5938 Q240.2964,206.9375 240.2964,203.8125 Q240.2964,200.6875 241.6089,199.0313 Q242.937,197.375 245.437,197.375 Q246.1401,197.375 246.7808,197.5313 Q247.437,197.6875 247.9995,197.9844 L247.9995,200.7031 Q247.3745,200.125 246.7808,199.8594 Q246.187,199.5781 245.562,199.5781 Q244.2183,199.5781 243.5308,200.6563 Q242.8433,201.7188 242.8433,203.8125 Q242.8433,205.9063 243.5308,206.9844 Q244.2183,208.0469 245.562,208.0469 Q246.187,208.0469 246.7808,207.7813 Q247.3745,207.5 247.9995,206.9219 L247.9995,209.6406 Z " fill="#000000"/><text fill="#000000" font-family="sans-serif" font-size="14" lengthAdjust="spacing" textLength="35.6084" x="265.5308" y="208.8467">Pizza</text><line style="stroke:#181818;stroke-width:0.5;" x1="179.5" x2="354.6699" y1="220" y2="220"/><ellipse cx="189.5" cy="233.6484" fill="none" rx="3" ry="3" style="stroke:#038048;stroke-width:1;"/><text fill="#000000" font-family="sans-serif" font-size="14" lengthAdjust="spacing" textLength="111.9521" x="198.5" y="236.9951">tamanho: string</text><ellipse cx="189.5" cy="249.9453" fill="none" rx="3" ry="3" style="stroke:#038048;stroke-width:1;"/><text fill="#000000" font-family="sans-serif" font-size="14" lengthAdjust="spacing" textLength="94.7393" x="198.5" y="253.292">massa: string</text><ellipse cx="189.5" cy="266.2422" fill="none" rx="3" ry="3" style="stroke:#038048;stroke-width:1;"/><text fill="#000000" font-family="sans-serif" font-size="14" lengthAdjust="spacing" textLength="147.957" x="198.5" y="269.5889">ingredientes: string[]</text><line style="stroke:#181818;stroke-width:0.5;" x1="179.5" x2="354.6699" y1="276.8906" y2="276.8906"/><ellipse cx="189.5" cy="290.5391" fill="#84BE84" rx="3" ry="3" style="stroke:#038048;stroke-width:1;"/><text fill="#000000" font-family="sans-serif" font-size="14" lengthAdjust="spacing" textLength="151.1699" x="198.5" y="293.8857">exibirDetalhes(): void</text></g><!--class PizzaBuilder--><g id="elem_PizzaBuilder"><rect codeLine="8" fill="#F1F1F1" height="129.4844" id="PizzaBuilder" rx="2.5" ry="2.5" style="stroke:#181818;stroke-width:0.5;" width="406.29" x="419" y="180"/><ellipse cx="575.3345" cy="196" fill="#B4A7E5" rx="11" ry="11" style="stroke:#181818;stroke-width:1;"/><path d="M571.2563,191.7656 L571.2563,189.6094 L578.647,189.6094 L578.647,191.7656 L576.1782,191.7656 L576.1782,199.8438 L578.647,199.8438 L578.647,202 L571.2563,202 L571.2563,199.8438 L573.7251,199.8438 L573.7251,191.7656 L571.2563,191.7656 Z " fill="#000000"/><text fill="#000000" font-family="sans-serif" font-size="14" font-style="italic" lengthAdjust="spacing" textLength="85.1211" x="595.8345" y="200.8467">PizzaBuilder</text><line style="stroke:#181818;stroke-width:0.5;" x1="420" x2="824.29" y1="212" y2="212"/><line style="stroke:#181818;stroke-width:0.5;" x1="420" x2="824.29" y1="220" y2="220"/><ellipse cx="430" cy="233.6484" fill="#84BE84" rx="3" ry="3" style="stroke:#038048;stroke-width:1;"/><text fill="#000000" font-family="sans-serif" font-size="14" lengthAdjust="spacing" textLength="162.1553" x="439" y="236.9951">reiniciar(): PizzaBuilder</text><ellipse cx="430" cy="249.9453" fill="#84BE84" rx="3" ry="3" style="stroke:#038048;stroke-width:1;"/><text fill="#000000" font-family="sans-serif" font-size="14" lengthAdjust="spacing" textLength="327.6602" x="439" y="253.292">definirTamanho(tamanho: string): PizzaBuilder</text><ellipse cx="430" cy="266.2422" fill="#84BE84" rx="3" ry="3" style="stroke:#038048;stroke-width:1;"/><text fill="#000000" font-family="sans-serif" font-size="14" lengthAdjust="spacing" textLength="288.6133" x="439" y="269.5889">definirMassa(massa: string): PizzaBuilder</text><ellipse cx="430" cy="282.5391" fill="#84BE84" rx="3" ry="3" style="stroke:#038048;stroke-width:1;"/><text fill="#000000" font-family="sans-serif" font-size="14" lengthAdjust="spacing" textLength="380.29" x="439" y="285.8857">adicionarIngrediente(ingrediente: string): PizzaBuilder</text><ellipse cx="430" cy="298.8359" fill="#84BE84" rx="3" ry="3" style="stroke:#038048;stroke-width:1;"/><text fill="#000000" font-family="sans-serif" font-size="14" lengthAdjust="spacing" textLength="162.9277" x="439" y="302.1826">obterResultado(): Pizza</text></g><!--class MargheritaPizzaBuilder--><g id="elem_MargheritaPizzaBuilder"><rect codeLine="16" fill="#F1F1F1" height="129.4844" id="MargheritaPizzaBuilder" rx="2.5" ry="2.5" style="stroke:#181818;stroke-width:0.5;" width="406.29" x="7" y="369"/><ellipse cx="125.084" cy="385" fill="#ADD1B2" rx="11" ry="11" style="stroke:#181818;stroke-width:1;"/><path d="M128.0527,390.6406 Q127.4746,390.9375 126.834,391.0781 Q126.1934,391.2344 125.4902,391.2344 Q122.9902,391.2344 121.6621,389.5938 Q120.3496,387.9375 120.3496,384.8125 Q120.3496,381.6875 121.6621,380.0313 Q122.9902,378.375 125.4902,378.375 Q126.1934,378.375 126.834,378.5313 Q127.4902,378.6875 128.0527,378.9844 L128.0527,381.7031 Q127.4277,381.125 126.834,380.8594 Q126.2402,380.5781 125.6152,380.5781 Q124.2715,380.5781 123.584,381.6563 Q122.8965,382.7188 122.8965,384.8125 Q122.8965,386.9063 123.584,387.9844 Q124.2715,389.0469 125.6152,389.0469 Q126.2402,389.0469 126.834,388.7813 Q127.4277,388.5 128.0527,387.9219 L128.0527,390.6406 Z " fill="#000000"/><text fill="#000000" font-family="sans-serif" font-size="14" lengthAdjust="spacing" textLength="161.6221" x="145.584" y="389.8467">MargheritaPizzaBuilder</text><line style="stroke:#181818;stroke-width:0.5;" x1="8" x2="412.29" y1="401" y2="401"/><line style="stroke:#181818;stroke-width:0.5;" x1="8" x2="412.29" y1="409" y2="409"/><ellipse cx="18" cy="422.6484" fill="#84BE84" rx="3" ry="3" style="stroke:#038048;stroke-width:1;"/><text fill="#000000" font-family="sans-serif" font-size="14" lengthAdjust="spacing" textLength="162.1553" x="27" y="425.9951">reiniciar(): PizzaBuilder</text><ellipse cx="18" cy="438.9453" fill="#84BE84" rx="3" ry="3" style="stroke:#038048;stroke-width:1;"/><text fill="#000000" font-family="sans-serif" font-size="14" lengthAdjust="spacing" textLength="327.6602" x="27" y="442.292">definirTamanho(tamanho: string): PizzaBuilder</text><ellipse cx="18" cy="455.2422" fill="#84BE84" rx="3" ry="3" style="stroke:#038048;stroke-width:1;"/><text fill="#000000" font-family="sans-serif" font-size="14" lengthAdjust="spacing" textLength="288.6133" x="27" y="458.5889">definirMassa(massa: string): PizzaBuilder</text><ellipse cx="18" cy="471.5391" fill="#84BE84" rx="3" ry="3" style="stroke:#038048;stroke-width:1;"/><text fill="#000000" font-family="sans-serif" font-size="14" lengthAdjust="spacing" textLength="380.29" x="27" y="474.8857">adicionarIngrediente(ingrediente: string): PizzaBuilder</text><ellipse cx="18" cy="487.8359" fill="#84BE84" rx="3" ry="3" style="stroke:#038048;stroke-width:1;"/><text fill="#000000" font-family="sans-serif" font-size="14" lengthAdjust="spacing" textLength="162.9277" x="27" y="491.1826">obterResultado(): Pizza</text></g><!--class PepperoniPizzaBuilder--><g id="elem_PepperoniPizzaBuilder"><rect codeLine="24" fill="#F1F1F1" height="129.4844" id="PepperoniPizzaBuilder" rx="2.5" ry="2.5" style="stroke:#181818;stroke-width:0.5;" width="406.29" x="448" y="369"/><ellipse cx="569.0713" cy="385" fill="#ADD1B2" rx="11" ry="11" style="stroke:#181818;stroke-width:1;"/><path d="M572.04,390.6406 Q571.4619,390.9375 570.8213,391.0781 Q570.1807,391.2344 569.4775,391.2344 Q566.9775,391.2344 565.6494,389.5938 Q564.3369,387.9375 564.3369,384.8125 Q564.3369,381.6875 565.6494,380.0313 Q566.9775,378.375 569.4775,378.375 Q570.1807,378.375 570.8213,378.5313 Q571.4775,378.6875 572.04,378.9844 L572.04,381.7031 Q571.415,381.125 570.8213,380.8594 Q570.2275,380.5781 569.6025,380.5781 Q568.2588,380.5781 567.5713,381.6563 Q566.8838,382.7188 566.8838,384.8125 Q566.8838,386.9063 567.5713,387.9844 Q568.2588,389.0469 569.6025,389.0469 Q570.2275,389.0469 570.8213,388.7813 Q571.415,388.5 572.04,387.9219 L572.04,390.6406 Z " fill="#000000"/><text fill="#000000" font-family="sans-serif" font-size="14" lengthAdjust="spacing" textLength="155.6475" x="589.5713" y="389.8467">PepperoniPizzaBuilder</text><line style="stroke:#181818;stroke-width:0.5;" x1="449" x2="853.29" y1="401" y2="401"/><line style="stroke:#181818;stroke-width:0.5;" x1="449" x2="853.29" y1="409" y2="409"/><ellipse cx="459" cy="422.6484" fill="#84BE84" rx="3" ry="3" style="stroke:#038048;stroke-width:1;"/><text fill="#000000" font-family="sans-serif" font-size="14" lengthAdjust="spacing" textLength="162.1553" x="468" y="425.9951">reiniciar(): PizzaBuilder</text><ellipse cx="459" cy="438.9453" fill="#84BE84" rx="3" ry="3" style="stroke:#038048;stroke-width:1;"/><text fill="#000000" font-family="sans-serif" font-size="14" lengthAdjust="spacing" textLength="327.6602" x="468" y="442.292">definirTamanho(tamanho: string): PizzaBuilder</text><ellipse cx="459" cy="455.2422" fill="#84BE84" rx="3" ry="3" style="stroke:#038048;stroke-width:1;"/><text fill="#000000" font-family="sans-serif" font-size="14" lengthAdjust="spacing" textLength="288.6133" x="468" y="458.5889">definirMassa(massa: string): PizzaBuilder</text><ellipse cx="459" cy="471.5391" fill="#84BE84" rx="3" ry="3" style="stroke:#038048;stroke-width:1;"/><text fill="#000000" font-family="sans-serif" font-size="14" lengthAdjust="spacing" textLength="380.29" x="468" y="474.8857">adicionarIngrediente(ingrediente: string): PizzaBuilder</text><ellipse cx="459" cy="487.8359" fill="#84BE84" rx="3" ry="3" style="stroke:#038048;stroke-width:1;"/><text fill="#000000" font-family="sans-serif" font-size="14" lengthAdjust="spacing" textLength="162.9277" x="468" y="491.1826">obterResultado(): Pizza</text></g><!--class PizzaDirector--><g id="elem_PizzaDirector"><rect codeLine="32" fill="#F1F1F1" height="113.1875" id="PizzaDirector" rx="2.5" ry="2.5" style="stroke:#181818;stroke-width:0.5;" width="313.1504" x="465.5" y="7"/><ellipse cx="571.7476" cy="23" fill="#ADD1B2" rx="11" ry="11" style="stroke:#181818;stroke-width:1;"/><path d="M574.7163,28.6406 Q574.1382,28.9375 573.4976,29.0781 Q572.8569,29.2344 572.1538,29.2344 Q569.6538,29.2344 568.3257,27.5938 Q567.0132,25.9375 567.0132,22.8125 Q567.0132,19.6875 568.3257,18.0313 Q569.6538,16.375 572.1538,16.375 Q572.8569,16.375 573.4976,16.5313 Q574.1538,16.6875 574.7163,16.9844 L574.7163,19.7031 Q574.0913,19.125 573.4976,18.8594 Q572.9038,18.5781 572.2788,18.5781 Q570.9351,18.5781 570.2476,19.6563 Q569.5601,20.7188 569.5601,22.8125 Q569.5601,24.9063 570.2476,25.9844 Q570.9351,27.0469 572.2788,27.0469 Q572.9038,27.0469 573.4976,26.7813 Q574.0913,26.5 574.7163,25.9219 L574.7163,28.6406 Z " fill="#000000"/><text fill="#000000" font-family="sans-serif" font-size="14" lengthAdjust="spacing" textLength="92.1553" x="592.2476" y="27.8467">PizzaDirector</text><line style="stroke:#181818;stroke-width:0.5;" x1="466.5" x2="777.6504" y1="39" y2="39"/><rect fill="none" height="6" style="stroke:#C82930;stroke-width:1;" width="6" x="473.5" y="49.6484"/><text fill="#000000" font-family="sans-serif" font-size="14" lengthAdjust="spacing" textLength="143.083" x="485.5" y="55.9951">builder: PizzaBuilder</text><line style="stroke:#181818;stroke-width:0.5;" x1="466.5" x2="777.6504" y1="63.2969" y2="63.2969"/><ellipse cx="476.5" cy="76.9453" fill="#84BE84" rx="3" ry="3" style="stroke:#038048;stroke-width:1;"/><text fill="#000000" font-family="sans-serif" font-size="14" lengthAdjust="spacing" textLength="287.1504" x="485.5" y="80.292">definirBuilder(builder: PizzaBuilder): void</text><ellipse cx="476.5" cy="93.2422" fill="#84BE84" rx="3" ry="3" style="stroke:#038048;stroke-width:1;"/><text fill="#000000" font-family="sans-serif" font-size="14" lengthAdjust="spacing" textLength="157.8965" x="485.5" y="96.5889">criarMargherita(): void</text><ellipse cx="476.5" cy="109.5391" fill="#84BE84" rx="3" ry="3" style="stroke:#038048;stroke-width:1;"/><text fill="#000000" font-family="sans-serif" font-size="14" lengthAdjust="spacing" textLength="151.9219" x="485.5" y="112.8857">criarPepperoni(): void</text></g><!--link PizzaDirector to PizzaBuilder--><g id="link_PizzaDirector_PizzaBuilder"><path codeLine="39" d="M622,120.16 C622,139.04 622,154.28 622,173.75 " fill="none" id="PizzaDirector-to-PizzaBuilder" style="stroke:#181818;stroke-width:1;"/><polygon fill="#181818" points="622,179.75,626,170.75,622,174.75,618,170.75,622,179.75" style="stroke:#181818;stroke-width:1;"/></g><!--reverse link PizzaBuilder to MargheritaPizzaBuilder--><g id="link_PizzaBuilder_MargheritaPizzaBuilder"><path codeLine="40" d="M465.5491,316.5089 C422.9791,335.8289 392.59,349.62 350.02,368.95 " fill="none" id="PizzaBuilder-backto-MargheritaPizzaBuilder" style="stroke:#181818;stroke-width:1;stroke-dasharray:7.0,7.0;"/><polygon fill="none" points="481.94,309.07,463.0694,311.0452,468.0287,321.9725,481.94,309.07" style="stroke:#181818;stroke-width:1;"/></g><!--reverse link PizzaBuilder to PepperoniPizzaBuilder--><g id="link_PizzaBuilder_PepperoniPizzaBuilder"><path codeLine="41" d="M634.6199,326.8572 C637.6099,346.1272 638.13,349.51 641.12,368.79 " fill="none" id="PizzaBuilder-backto-PepperoniPizzaBuilder" style="stroke:#181818;stroke-width:1;stroke-dasharray:7.0,7.0;"/><polygon fill="none" points="631.86,309.07,628.6909,327.7771,640.549,325.9372,631.86,309.07" style="stroke:#181818;stroke-width:1;"/></g><!--reverse link Pizza to MargheritaPizzaBuilder--><g id="link_Pizza_MargheritaPizzaBuilder"><path codeLine="42" d="M248.3002,306.8392 C241.8002,328.1592 236.09,346.9 229.38,368.91 " fill="none" id="Pizza-backto-MargheritaPizzaBuilder" style="stroke:#181818;stroke-width:1;"/><polygon fill="#181818" points="250.05,301.1,243.5992,308.5423,248.5919,305.8827,251.2515,310.8753,250.05,301.1" style="stroke:#181818;stroke-width:1;"/></g><!--reverse link Pizza to PepperoniPizzaBuilder--><g id="link_Pizza_PepperoniPizzaBuilder"><path codeLine="43" d="M360.9745,291.2666 C409.8145,315.0466 465.98,342.4 520.25,368.83 " fill="none" id="Pizza-backto-PepperoniPizzaBuilder" style="stroke:#181818;stroke-width:1;"/><polygon fill="#181818" points="355.58,288.64,361.9208,296.1762,360.0755,290.8288,365.4229,288.9835,355.58,288.64" style="stroke:#181818;stroke-width:1;"/></g><!--SRC=[vLF1RiCW3BtdApWoJVG3gcg7gPSTAbNLRjCE3hYDfHGgGwkgs_vz92njs5X-e9p0xzb-pu1kmNknfii5n4SbudeCi0VRkBdmWSdkKd0VQP27ueRH4Dg0Va3UtXE6Pwg9bnYWRT3BXxauEJBLLrLHfFCMDAQcpqTg3VBGcv4iQGBkKiQ411lSHfnVaqBvI-bKoghJBpCNHJgOsDvPu9UREpboEfdiwkXjW_xO1Z3kQg6phVivhu1t3J85k4FpQpmSa9sbU_JU7PV4g8CRFAiwbPWG_nEJHURmgVe4pN5sj-Sb_uBNyOz_OwvBgQTSItPJYy_Px9yNN20MRplnn4AfoK8zeLZW6m00]--></g></svg>